<?xml version="1.0" encoding="UTF-8" standalone="no"?>
<!DOCTYPE svg PUBLIC "-//W3C//DTD SVG 1.1//EN"
"http://www.w3.org/Graphics/SVG/1.1/DTD/svg11.dtd">
<svg viewBox="0 0 1448 2048" version="1.1" xmlns="http://www.w3.org/2000/svg" xmlns:xlink="http://www.w3.org/1999/xlink">
<defs>
<clipPath id="c0"><path d="M0,2048.8V0H1448.3V2048.8Z"/></clipPath>
<clipPath id="c1"><path d="M187.3,186.4c-2.5,0,-5,-.2,-7.5,-.6c-7.3,-1.2,-14.3,-4.1,-20.3,-8.5c-1.7,-1.3,-3.4,-2.7,-5,-4.2c-7.3,-6.9,-12.3,-16,-14.3,-25.8c-3.5,-16.4,1.1,-32.7,13.4,-47.2c2.2,-2.6,4.6,-5.1,7.1,-7.4c2.1,-2,4.4,-3.8,6.8,-5.5c1.3,-1,2.7,-1.9,4.2,-2.7c2.7,-1.4,5.5,-2,8.3,-2c6.5,0,12.7,3.4,16.1,9.3c4.9,8.6,2.2,19.5,-6.1,24.8h-.1c-3.8,2.7,-15.8,12.4,-13.6,23c.9,4.8,4.7,8.6,9.5,9.7c.7,.2,1.5,.2,2.2,.2c4.8,0,9.2,-3.4,12.6,-7.3l5.7,40.1c-6,2.7,-12.5,4.1,-19,4.1Z"/></clipPath>
<clipPath id="c2"><path d="M203.9,90.1c-1.8,0,-3.7,-.5,-5.3,-1.5c-4.6,-3,-6,-9.2,-3,-13.8c1.9,-2.9,5.1,-4.5,8.4,-4.5c1.8,0,3.7,.5,5.3,1.6c4.7,2.9,6,9.1,3,13.7c-1.9,2.9,-5.1,4.5,-8.4,4.5Z"/></clipPath>
<clipPath id="c3"><path d="M282.3,160.4c-15.4,0,-25.6,-9.8,-25.6,-24.8C256.7,120,267.2,110,282.4,110c.1,0,.3,0,.5,0c4.6,0,9.2,1,13.5,2.8V118h-.2c-4,-2,-8.3,-3,-12.8,-3c-.1,0,-.2,0,-.3,0c-12.7,0,-20.8,8,-20.8,20.3c0,12.1,7.6,20.1,20.8,20.1c.2,0,.4,0,.6,0c4.3,0,8.6,-1.1,12.5,-3.1l.2,.1v4.9c-4,2,-8.4,3.1,-14.1,3.1Z"/></clipPath>
<clipPath id="c4"><path d="M313.7,161.9c-5.2,0,-8.1,-2.6,-8.1,-8.3V110h5.2v41.9c0,3.7,1.2,5.1,4,5.1c1,0,1.9,-.3,2.8,-.8h.2V161c-1.3,.6,-2.7,.9,-4.1,.9Z"/></clipPath>
<clipPath id="c5"><path d="M324.9,160.4V123.1h5.6v37.3ZM327.7,116c-2.1,0,-3.8,-1.7,-3.8,-3.8c0,-2,1.7,-3.7,3.8,-3.7c2.1,0,3.8,1.7,3.8,3.7c0,2.1,-1.7,3.8,-3.8,3.8Z"/></clipPath>
<clipPath id="c6"><path d="M360,161.9c-11.4,0,-19.3,-7.6,-19.3,-19.8c0,-12.2,8.2,-19.9,19.3,-19.9c4.2,0,6.8,.6,9.5,1.7v4.7l-.2,.1C366.7,127.6,364,127,361.2,127c-.2,0,-.5,0,-.7,0c-8.5,0,-14.3,5.9,-14.3,14.9c0,9.1,5.4,15.2,14.3,15.3c4,0,6.2,-.9,8.9,-2.4l.3,.1v4.7c-2.7,1.5,-5.3,2.3,-9.7,2.3Z"/></clipPath>
<clipPath id="c7"><path d="M378.9,161.9V110h5.4v30.9l17.8,-16.7h6.4v.2l-19.1,17.8l20,19.5v.2h-6.7L384.3,144.2v17.7Z"/></clipPath>
<style type="text/css"><![CDATA[
.g0{
fill: #FFFFFF;
}
.g1{
fill: #FFFFFF;
fill-opacity: 0.08;
}
.g2{
fill: #00337C;
}
.g3{
fill: none;
stroke: #00337C;
stroke-width: 4.583;
stroke-linecap: butt;
stroke-linejoin: miter;
}
]]></style>
</defs>
<path d="M0,2048.8H1448.3V0H0V2048.8Z" class="g0"/>
<g clip-path="url(#c0)">
<path d="M-797.4,2077.8H1663.8V-12.1H-797.4V2077.8Z" class="g1"/>
</g>
<image x="371" y="0" width="1078" height="1120" xlink:href="shade/1.png"/>
<image x="0" y="979" width="953" height="1071" xlink:href="shade/2.png"/>
<g clip-path="url(#c1)">
<path d="M131.4,194h82.5V74.9H131.4V194Z" class="g2"/>
</g>
<image x="213" y="100" width="23" height="23" xlink:href="shade/3.png"/>
<image x="213" y="100" width="23" height="23" xlink:href="shade/4.png"/>
<g clip-path="url(#c2)">
<path d="M179.7,85.4l19,-29.5L228.2,75l-19,29.5Z" class="g2"/>
</g>
<image x="145" y="121" width="98" height="65" xlink:href="shade/5.png"/>
<image x="145" y="121" width="98" height="65" xlink:href="shade/6.png"/>
<image x="179" y="133" width="46" height="55" xlink:href="shade/7.png"/>
<image x="179" y="133" width="46" height="55" xlink:href="shade/8.png"/>
<image x="190" y="116" width="18" height="18" xlink:href="shade/9.png"/>
<image x="190" y="116" width="18" height="18" xlink:href="shade/10.png"/>
<g clip-path="url(#c3)">
<path d="M249,168.1h55V102.4H249v65.7Z" class="g2"/>
</g>
<g clip-path="url(#c4)">
<path d="M297.9,169.6h27.5V102.4H297.9v67.2Z" class="g2"/>
</g>
<g clip-path="url(#c5)">
<path d="M316.3,168.1h22.9V100.8H316.3v67.3Z" class="g2"/>
</g>
<g clip-path="url(#c6)">
<path d="M333.1,169.6h44.3v-55H333.1v55Z" class="g2"/>
</g>
<g clip-path="url(#c7)">
<path d="M371.3,169.6h45.8V102.4H371.3v67.2Z" class="g2"/>
</g>
<image x="413" y="109" width="46" height="53" xlink:href="shade/11.png"/>
<image x="413" y="109" width="46" height="53" xlink:href="shade/12.png"/>
<image x="466" y="110" width="33" height="50" xlink:href="shade/13.png"/>
<image x="466" y="110" width="33" height="50" xlink:href="shade/14.png"/>
<path d="M139,1699.3c12.9,-16.1,19.4,-41.7,19.4,-76.8c-1.9,31.6,3.6,52.3,16.5,62.1C185,1673.8,190,1643.9,190,1595c.8,75.4,10.6,132.3,29.4,170.5m-23.8,-94.1c14,-47.5,26.2,-63.4,36.5,-47.5c15.6,23.7,3.4,86.6,36.1,67c32.7,-19.5,28.4,-49.8,153.7,-34.6" class="g3"/>
</svg>